<svg width="215" height="162" viewBox="0 0 215 162" fill="none" xmlns="http://www.w3.org/2000/svg">
<g filter="url(#filter0_i)">
<circle cx="74" cy="74" r="74" fill="#7295D9"/>
</g>
<path d="M207.3 8H114.9C110.647 8 107.2 11.4474 107.2 15.7V72.1667H73.8333C69.5807 72.1667 66.1333 75.614 66.1333 79.8667V131.2H63.5667C62.1492 131.2 61 132.349 61 133.767C61.0083 140.851 66.7493 146.592 73.8333 146.6H155.967C163.047 146.607 168.793 140.873 168.8 133.792C168.8 133.784 168.8 133.775 168.8 133.767C168.8 132.349 167.651 131.2 166.233 131.2H163.667V102.967H191.9C193.317 102.967 194.467 101.817 194.467 100.4C194.467 98.9826 193.317 97.8333 191.9 97.8333H178.435L174.77 85H207.3C211.553 85 215 81.5526 215 77.3V15.7C215 11.4474 211.553 8 207.3 8ZM71.2667 79.8667C71.2667 78.4492 72.4159 77.3 73.8333 77.3H155.967C157.384 77.3 158.533 78.4492 158.533 79.8667V131.2H122.6C121.183 131.2 120.033 132.349 120.033 133.767H109.767C109.767 132.349 108.617 131.2 107.2 131.2H71.2667V79.8667ZM161.429 139.203C159.979 140.65 158.015 141.464 155.967 141.467H73.8333C70.5711 141.463 67.664 139.408 66.5722 136.333H104.633C104.633 137.751 105.783 138.9 107.2 138.9H122.6C124.017 138.9 125.167 137.751 125.167 136.333H163.228C162.845 137.41 162.231 138.39 161.429 139.203ZM163.667 97.8333V85H169.431L173.097 97.8333H163.667ZM209.867 77.3C209.867 78.7174 208.717 79.8667 207.3 79.8667H163.667C163.667 75.614 160.219 72.1667 155.967 72.1667H112.333V15.7C112.333 14.2826 113.483 13.1333 114.9 13.1333H207.3C208.717 13.1333 209.867 14.2826 209.867 15.7V77.3Z" fill="#4E4E4E"/>
<path d="M202.167 105.533H181.633C177.381 105.533 173.933 108.981 173.933 113.233V154.3C173.933 158.553 177.381 162 181.633 162H202.167C206.419 162 209.867 158.553 209.867 154.3V113.233C209.867 108.981 206.419 105.533 202.167 105.533ZM204.733 154.3C204.733 155.718 203.584 156.867 202.167 156.867H181.633C180.216 156.867 179.067 155.718 179.067 154.3V113.233C179.067 111.816 180.216 110.667 181.633 110.667H202.167C203.584 110.667 204.733 111.816 204.733 113.233V154.3Z" fill="#4E4E4E"/>
<defs>
<filter id="filter0_i" x="0" y="0" width="148" height="152" filterUnits="userSpaceOnUse" color-interpolation-filters="sRGB">
<feFlood flood-opacity="0" result="BackgroundImageFix"/>
<feBlend mode="normal" in="SourceGraphic" in2="BackgroundImageFix" result="shape"/>
<feColorMatrix in="SourceAlpha" type="matrix" values="0 0 0 0 0 0 0 0 0 0 0 0 0 0 0 0 0 0 127 0" result="hardAlpha"/>
<feOffset dy="4"/>
<feGaussianBlur stdDeviation="2"/>
<feComposite in2="hardAlpha" operator="arithmetic" k2="-1" k3="1"/>
<feColorMatrix type="matrix" values="0 0 0 0 0 0 0 0 0 0 0 0 0 0 0 0 0 0 0.25 0"/>
<feBlend mode="normal" in2="shape" result="effect1_innerShadow"/>
</filter>
</defs>
</svg>
