<svg width="204" height="157" viewBox="0 0 204 157" fill="none" xmlns="http://www.w3.org/2000/svg">
<g filter="url(#filter0_i)">
<circle cx="74" cy="74" r="74" fill="#7295D9"/>
</g>
<g clip-path="url(#clip0)">
<path d="M182.922 20.3399H103.187C101.767 12.2297 94.041 6.80583 85.9306 8.22586C78.8295 9.46915 73.6352 15.6154 73.5936 22.8246V144.576H73.8172C75.0344 151.741 81.235 156.987 88.5019 157H158.074C159.447 157 160.559 155.888 160.559 154.515V147.061H182.922C184.294 147.061 185.406 145.949 185.406 144.576V22.8246C185.406 21.4524 184.294 20.3399 182.922 20.3399ZM78.563 22.8246C78.563 17.3355 83.0129 12.8857 88.5019 12.8857C93.991 12.8857 98.4409 17.3355 98.4409 22.8246V131.01C92.7971 125.908 84.2071 125.908 78.563 131.01V22.8246ZM155.59 152.031H88.5019C83.0129 152.031 78.563 147.581 78.563 142.092C78.563 136.603 83.0129 132.153 88.5019 132.153C93.991 132.153 98.4409 136.603 98.4409 142.092V144.576C98.4409 145.949 99.5534 147.061 100.926 147.061H155.59V152.031ZM180.437 142.092H103.41V25.3093H180.437V142.092Z" fill="#4E4E4E"/>
<path d="M172.983 30.2788H110.865C109.492 30.2788 108.38 31.3913 108.38 32.7635V57.6108C108.38 58.983 109.492 60.0956 110.865 60.0956H172.983C174.355 60.0956 175.468 58.983 175.468 57.6108V32.7635C175.468 31.3913 174.355 30.2788 172.983 30.2788ZM170.498 55.1261H113.349V35.2483H170.498V55.1261Z" fill="#4E4E4E"/>
<path d="M140.681 65.0649H110.865C109.492 65.0649 108.38 66.1775 108.38 67.5497V94.8817C108.38 96.2539 109.492 97.3665 110.865 97.3665H140.681C142.053 97.3665 143.166 96.2539 143.166 94.8817V67.5497C143.166 66.1775 142.053 65.0649 140.681 65.0649ZM138.197 92.397H113.349V70.0344H138.197V92.397Z" fill="#4E4E4E"/>
<path d="M172.983 102.336H143.166C141.794 102.336 140.681 103.448 140.681 104.821V134.637C140.681 136.01 141.794 137.122 143.166 137.122H172.983C174.355 137.122 175.468 136.01 175.468 134.637V104.821C175.468 103.448 174.355 102.336 172.983 102.336ZM170.498 132.153H145.651V107.305H170.498V132.153Z" fill="#4E4E4E"/>
<path d="M175.468 67.5498H148.135V72.5193H175.468V67.5498Z" fill="#4E4E4E"/>
<path d="M175.468 77.4885H148.135V82.458H175.468V77.4885Z" fill="#4E4E4E"/>
<path d="M175.468 87.4275H148.135V92.3969H175.468V87.4275Z" fill="#4E4E4E"/>
<path d="M135.712 102.336H108.38V107.305H135.712V102.336Z" fill="#4E4E4E"/>
<path d="M135.712 112.275H108.38V117.244H135.712V112.275Z" fill="#4E4E4E"/>
<path d="M135.712 122.214H108.38V127.183H135.712V122.214Z" fill="#4E4E4E"/>
<path d="M135.712 132.153H108.38V137.122H135.712V132.153Z" fill="#4E4E4E"/>
</g>
<defs>
<filter id="filter0_i" x="0" y="0" width="148" height="152" filterUnits="userSpaceOnUse" color-interpolation-filters="sRGB">
<feFlood flood-opacity="0" result="BackgroundImageFix"/>
<feBlend mode="normal" in="SourceGraphic" in2="BackgroundImageFix" result="shape"/>
<feColorMatrix in="SourceAlpha" type="matrix" values="0 0 0 0 0 0 0 0 0 0 0 0 0 0 0 0 0 0 127 0" result="hardAlpha"/>
<feOffset dy="4"/>
<feGaussianBlur stdDeviation="2"/>
<feComposite in2="hardAlpha" operator="arithmetic" k2="-1" k3="1"/>
<feColorMatrix type="matrix" values="0 0 0 0 0 0 0 0 0 0 0 0 0 0 0 0 0 0 0.25 0"/>
<feBlend mode="normal" in2="shape" result="effect1_innerShadow"/>
</filter>
<clipPath id="clip0">
<rect width="149" height="149" fill="white" transform="translate(55 8)"/>
</clipPath>
</defs>
</svg>
