<svg width="19" height="19" viewBox="0 0 19 19" fill="none" xmlns="http://www.w3.org/2000/svg">
<g clip-path="url(#clip0)">
<path d="M18.4556 6.22371C18.1532 6.22371 17.9113 6.46565 17.9113 6.76807V11.7197C17.9113 13.0664 16.8145 14.1592 15.4718 14.1592H3.52823C2.18145 14.1592 1.08871 13.0624 1.08871 11.7197V6.68742C1.08871 6.385 0.846774 6.14307 0.544355 6.14307C0.241935 6.14307 0 6.385 0 6.68742V11.7197C0 13.6673 1.58468 15.2479 3.52823 15.2479H15.4718C17.4194 15.2479 19 13.6632 19 11.7197V6.76807C19 6.46968 18.7581 6.22371 18.4556 6.22371Z" fill="white"/>
<path d="M9.11691 13.9818C9.22175 14.0866 9.36288 14.1431 9.49998 14.1431C9.63707 14.1431 9.7782 14.0907 9.88304 13.9818L13.3427 10.5221C13.5564 10.3084 13.5564 9.96566 13.3427 9.75195C13.129 9.53824 12.7863 9.53824 12.5726 9.75195L10.0443 12.2842V1.23985C10.0443 0.937431 9.8024 0.695496 9.49998 0.695496C9.19756 0.695496 8.95562 0.937431 8.95562 1.23985V12.2842L6.42336 9.75195C6.20965 9.53824 5.86691 9.53824 5.6532 9.75195C5.43949 9.96566 5.43949 10.3084 5.6532 10.5221L9.11691 13.9818Z" fill="white"/>
</g>
<defs>
<clipPath id="clip0">
<rect width="19" height="19" fill="white"/>
</clipPath>
</defs>
</svg>
