<svg width="208" height="166" viewBox="0 0 208 166" fill="none" xmlns="http://www.w3.org/2000/svg">
<g filter="url(#filter0_i)">
<circle cx="74" cy="74" r="74" fill="#7295D9"/>
</g>
<g clip-path="url(#clip0)">
<path d="M128.692 151.959C134.316 151.959 138.875 147.4 138.875 141.775C138.875 136.151 134.316 131.592 128.692 131.592C123.068 131.592 118.508 136.151 118.508 141.775C118.508 147.4 123.068 151.959 128.692 151.959Z" fill="#4E4E4E"/>
<path d="M206.343 55.79C186.059 34.0271 158.592 22.0413 128.999 22.041C99.408 22.0413 71.941 34.0271 51.6569 55.79C49.3332 58.2834 49.4705 62.189 51.9639 64.513C54.4577 66.8367 58.3629 66.6997 60.6869 64.206C78.61 44.9757 102.87 34.3851 129.001 34.3847C155.13 34.3851 179.39 44.9757 197.313 64.206C198.529 65.5101 200.177 66.1698 201.829 66.1698C203.336 66.1698 204.847 65.6212 206.036 64.513C208.53 62.1887 208.667 58.2834 206.343 55.79Z" fill="#4E4E4E"/>
<path d="M183.681 81.2779C168.687 66.1711 149.268 57.8517 128.999 57.8523C108.726 57.8526 89.3066 66.1723 74.3176 81.2786C71.9167 83.6983 71.9318 87.606 74.3515 90.0068C76.7712 92.4077 80.6789 92.3926 83.0798 89.9729C95.7337 77.2199 112.042 70.1964 128.999 70.196C145.953 70.1954 162.261 77.2193 174.919 89.9735C176.126 91.1891 177.713 91.7976 179.3 91.7976C180.872 91.7976 182.444 91.2008 183.648 90.0062C186.067 87.605 186.082 83.6973 183.681 81.2779Z" fill="#4E4E4E"/>
<path d="M158.98 106.84C150.951 98.8849 139.441 93.9434 128.942 93.9434C128.941 93.9434 128.939 93.9434 128.937 93.9434H128.493C128.491 93.9434 128.49 93.9434 128.488 93.9434C117.989 93.9434 106.478 98.8852 98.449 106.84C96.0277 109.239 96.0095 113.147 98.4085 115.568C99.6154 116.786 101.204 117.396 102.793 117.396C104.363 117.396 105.933 116.801 107.136 115.609C112.853 109.946 121.233 106.287 128.489 106.287C128.49 106.287 128.491 106.287 128.492 106.287H128.938C128.94 106.287 128.94 106.287 128.941 106.287C136.196 106.287 144.577 109.946 150.292 115.609C152.714 118.008 156.622 117.991 159.021 115.568C161.42 113.147 161.402 109.239 158.98 106.84Z" fill="#4E4E4E"/>
</g>
<defs>
<filter id="filter0_i" x="0" y="0" width="148" height="152" filterUnits="userSpaceOnUse" color-interpolation-filters="sRGB">
<feFlood flood-opacity="0" result="BackgroundImageFix"/>
<feBlend mode="normal" in="SourceGraphic" in2="BackgroundImageFix" result="shape"/>
<feColorMatrix in="SourceAlpha" type="matrix" values="0 0 0 0 0 0 0 0 0 0 0 0 0 0 0 0 0 0 127 0" result="hardAlpha"/>
<feOffset dy="4"/>
<feGaussianBlur stdDeviation="2"/>
<feComposite in2="hardAlpha" operator="arithmetic" k2="-1" k3="1"/>
<feColorMatrix type="matrix" values="0 0 0 0 0 0 0 0 0 0 0 0 0 0 0 0 0 0 0.25 0"/>
<feBlend mode="normal" in2="shape" result="effect1_innerShadow"/>
</filter>
<clipPath id="clip0">
<rect width="158" height="158" fill="white" transform="translate(50 8)"/>
</clipPath>
</defs>
</svg>
